<?xml version="1.0" encoding="iso-8859-1"?>
<!-- Generator: Adobe Illustrator 30.1.0, SVG Export Plug-In . SVG Version: 9.03 Build 0)  -->
<svg version="1.1" id="Layer_1" xmlns="http://www.w3.org/2000/svg" xmlns:xlink="http://www.w3.org/1999/xlink" x="0px" y="0px"
	 viewBox="100 200 1016.66 500" style="enable-background:new 0 0 1016.66 960;" xml:space="preserve"><metadata><c2pa:manifest xmlns:c2pa="http://c2pa.org/manifest">AAA0Rmp1bWIAAAAeanVtZGMycGEAEQAQgAAAqgA4m3EDYzJwYQAAADQganVtYgAAAEdqdW1kYzJtYQARABCAAACqADibcQN1cm46dXVpZDo4NDViNDg5OS02MGJiLTQ4MjAtYTU5Mi0xOWQyODRiN2E5NWMAAAABtWp1bWIAAAApanVtZGMyYXMAEQAQgAAAqgA4m3EDYzJwYS5hc3NlcnRpb25zAAAAANdqdW1iAAAAJmp1bWRjYm9yABEAEIAAAKoAOJtxA2MycGEuYWN0aW9ucwAAAACpY2JvcqFnYWN0aW9uc4GjZmFjdGlvbmtjMnBhLmVkaXRlZG1zb2Z0d2FyZUFnZW50bUFkb2JlIEZpcmVmbHlxZGlnaXRhbFNvdXJjZVR5cGV4U2h0dHA6Ly9jdi5pcHRjLm9yZy9uZXdzY29kZXMvZGlnaXRhbHNvdXJjZXR5cGUvY29tcG9zaXRlV2l0aFRyYWluZWRBbGdvcml0aG1pY01lZGlhAAAArWp1bWIAAAAoanVtZGNib3IAEQAQgAAAqgA4m3EDYzJwYS5oYXNoLmRhdGEAAAAAfWNib3KlamV4Y2x1c2lvbnOBomVzdGFydBkBq2ZsZW5ndGgZRbRkbmFtZW5qdW1iZiBtYW5pZmVzdGNhbGdmc2hhMjU2ZGhhc2hYIIj1hxusDQGLMi6nXPKjMfRszVljRR+v6P3eP7WLSZTLY3BhZEkAAAAAAAAAAAAAAAIManVtYgAAACRqdW1kYzJjbAARABCAAACqADibcQNjMnBhLmNsYWltAAAAAeBjYm9yqGhkYzp0aXRsZW9HZW5lcmF0ZWQgSW1hZ2VpZGM6Zm9ybWF0bWltYWdlL3N2Zyt4bWxqaW5zdGFuY2VJRHgseG1wOmlpZDpiODU0ZjAxNy02ODY4LTQ4ZDktYjI3MS1hNmZlYTZkYzNlZmNvY2xhaW1fZ2VuZXJhdG9yeDdBZG9iZV9JbGx1c3RyYXRvci8zMC4xIGFkb2JlX2MycGEvMC4xMi4yIGMycGEtcnMvMC4zMi41dGNsYWltX2dlbmVyYXRvcl9pbmZvgb9kbmFtZXFBZG9iZSBJbGx1c3RyYXRvcmd2ZXJzaW9uZDMwLjH/aXNpZ25hdHVyZXgZc2VsZiNqdW1iZj1jMnBhLnNpZ25hdHVyZWphc3NlcnRpb25zgqJjdXJseCdzZWxmI2p1bWJmPWMycGEuYXNzZXJ0aW9ucy9jMnBhLmFjdGlvbnNkaGFzaFggSmnBvf+o3kEweL4k7cz4MTrB0WSVNFZxoA1rBrM31K+iY3VybHgpc2VsZiNqdW1iZj1jMnBhLmFzc2VydGlvbnMvYzJwYS5oYXNoLmRhdGFkaGFzaFggIv58a5+FimfQaznF2B8oxH1GP4+2KcyJTwaYRfCuKc1jYWxnZnNoYTI1NgAAMBBqdW1iAAAAKGp1bWRjMmNzABEAEIAAAKoAOJtxA2MycGEuc2lnbmF0dXJlAAAAL+BjYm9y0oRZDRSiATgkGCGCWQagMIIGnDCCBISgAwIBAgIUSXMgaz5138lsr39W/y0qrbBAB90wDQYJKoZIhvcNAQELBQAwdTELMAkGA1UEBhMCVVMxIzAhBgNVBAoTGkFkb2JlIFN5c3RlbXMgSW5jb3Jwb3JhdGVkMR0wGwYDVQQLExRBZG9iZSBUcnVzdCBTZXJ2aWNlczEiMCAGA1UEAxMZQWRvYmUgUHJvZHVjdCBTZXJ2aWNlcyBHNDAeFw0yNTEwMDcxNjM5MDdaFw0yNjEwMDcxNjM5MDdaMIGrMRMwEQYDVQQDDApBZG9iZSBDMlBBMSgwJgYDVQQLDB9Db250ZW50IEF1dGhlbnRpY2l0eSBJbml0aWF0aXZlMRMwEQYDVQQKDApBZG9iZSBJbmMuMREwDwYDVQQHDAhTYW4gSm9zZTETMBEGA1UECAwKQ2FsaWZvcm5pYTELMAkGA1UEBhMCVVMxIDAeBgkqhkiG9w0BCQEWEWNhaS1vcHNAYWRvYmUuY29tMIIBIjANBgkqhkiG9w0BAQEFAAOCAQ8AMIIBCgKCAQEAwxDBgdB9PXLpMXPw5oNgYkFWDPP1aSfth9TZPINOtOQlhp1v4h+hMxZWFjkZ3RJRuoSBrsSSYBaEfiDMKisi/sOxuFHKBV//l1rv3SrjrixANXIlqjGdIYydaMaFa/5ovFz/m4+SUz0ccYzqw+vSAzuRySGnpgm8Gmj+SEJcL/GIHzqU9bUy3NsizY2oY28yj32rbkOqeADSM51OqIJKloEBFFexzMunzpU+K2sLqheoR8FJMaR0fGXa/gqRzhkiBFhwUhLPS9s6+TCnz09UZMlXbdG/iFKj3UPFUDjqh0wtFgcz24DrUlaWeiltKHouymBHuirzvmOG0VtSPepxOQIDAQABo4IB6zCCAecwDAYDVR0TAQH/BAIwADAdBgNVHQ4EFgQUWPUDftBmDOGODlahl0JJ0rsnwv4wHwYDVR0jBBgwFoAU0K1CivB6FAclxpfAQ6gjhei1LSMwDgYDVR0PAQH/BAQDAgeAMCoGA1UdJQQjMCEGCSqGSIb3LwEBDAYKKwYBBAGD6F4CAQYIKwYBBQUHAwQwgYAGCCsGAQUFBwEBBHQwcjAoBggrBgEFBQcwAYYcaHR0cDovL29jc3Aub25lLmRpZ2ljZXJ0LmNvbTBGBggrBgEFBQcwAoY6aHR0cDovL2NhY2VydHMub25lLmRpZ2ljZXJ0LmNvbS9BZG9iZVByb2R1Y3RTZXJ2aWNlc0c0LmNydDBHBgNVHR8EQDA+MDygOqA4hjZodHRwOi8vY3JsLm9uZS5kaWdpY2VydC5jb20vQWRvYmVQcm9kdWN0U2VydmljZXNHNC5jcmwwgY4GA1UdIASBhjCBgzCBgAYJKoZIhvcvAQIDMHMwcQYIKwYBBQUHAgIwZQxjWW91IGFyZSBub3QgcGVybWl0dGVkIHRvIHVzZSB0aGlzIExpY2Vuc2UgQ2VydGlmaWNhdGUgZXhjZXB0IGFzIHBlcm1pdHRlZCBieSB0aGUgbGljZW5zZSBhZ3JlZW1lbnQuMA0GCSqGSIb3DQEBCwUAA4ICAQCbO3PFcK1RflehQ16xHqE1Gc86kSRgF6EOwIlenWkRx2VST2NjTvTlOnWobVLxf9gFIMNtemsFoIBfNmc+R7t+GNDM+hSfstLJkqFqAlQOtTiaOakg6c0ubSVWqgse/piPa15k/qrLpIu4VBe3BmytOSSV+HFOPKsd7cO09sJeDMatk3K4jHMe/anXESUXlaN+tolvXg6qAQ8XE1cSb65QFBiawUMej6jQbkNZp3jnorOBqSJfOxIQw79/WnFMYfxRH/lI2rsY43YphqXcBXifjJQ0jxFMqJGNrm2/yODL6BGVtrjn97kofZW2cKFz5rDSTzlcFEcKUAB1iW7eeeTSKlzRkV+Ok2ib84lTFgNbi9UBnT3KLS6EkZLEIpdA2h4Suen1pwHjWmZsxWA3h/39OocsOegLLNvpdVRLltf26j72oaQHfT0QyhzrzDW48FJN3olJqlCBCk0G5wp3O5KpGdyPq9hAGjTJrvpxsnCXSqo6ZZzvJlfkJqkAa6Xf92LK6ywrnUzy8aBEQEnyBF76joPM3gTWMnJVPCPl1B9Fyw+tyqYgtNMgJyvltIclrx4q7DLluMrb92BnoN6naw+bdz5IN/oqR1KEzYrhD24opdktY9Asr3R3KFDgdPvv/r/Rk4vdtYnkyAdc8zxnyhnUHcpAH9FDsrAK1Rvga4seslkGZzCCBmMwggRLoAMCAQICEA7hut+teK5vJr1RJZgHiC8wDQYJKoZIhvcNAQELBQAwbDELMAkGA1UEBhMCVVMxIzAhBgNVBAoTGkFkb2JlIFN5c3RlbXMgSW5jb3Jwb3JhdGVkMR0wGwYDVQQLExRBZG9iZSBUcnVzdCBTZXJ2aWNlczEZMBcGA1UEAxMQQWRvYmUgUm9vdCBDQSBHMjAeFw0yNDExMjAwMDAwMDBaFw00NDExMTkyMzU5NTlaMHUxCzAJBgNVBAYTAlVTMSMwIQYDVQQKExpBZG9iZSBTeXN0ZW1zIEluY29ycG9yYXRlZDEdMBsGA1UECxMUQWRvYmUgVHJ1c3QgU2VydmljZXMxIjAgBgNVBAMTGUFkb2JlIFByb2R1Y3QgU2VydmljZXMgRzQwggIiMA0GCSqGSIb3DQEBAQUAA4ICDwAwggIKAoICAQCsRfiAsVhIvM7pgpniwolO2rOkQxJIAf8upxV3nHjAEAuWn8gs13lskCaJTuwpouDcOb7XsXQ981QsBu3FAJ95B6zWizbZBkvqqe4wht0KbwEpHUfrozqclojgf4gZclkfvHYxaY79zd9t7UeA6J/c3mdt/hnLZZnfg+SryNcykHVmByrTMRSWkSl8K3mzhOIreJVaD32PON73vTe3LiZRco9lbtzS669UYBBfo3VAABMp04RilVaFChtWm5rr5i6t+C5bgHESDBNExPBLhjDb6JkywGCNnODEl8Yayak4ZVkaPjLF4vieUv1WLJvob3eBZcLrPqheHAPtUBAzTIoncT0zI4tzlzQIbJxVjRRQbdEc0zUhbDkDmwyk6PdGAbxH0+iRqo8JK+4RH4/O4HDVV5M6CUhxAAyeJDZybua4Hn9i72KeHRtRKULJBjK2WqueYA3GylZuK52OTPd5R7BuAxLrH/92IoXTznXNLA4JgwyYrkEehpW9XyuEntCfb6Jl0kltadyAr901KXinfxkW9woQxaTHxw79FI3wkYfXnkQVxRglpAeg1L0jM+rgBxaQ7l4kcnpkY47MyU1sMdKehwcjHbb0UIYQPyX4BHCxLVHG+TE6Aq/g8CDuGWqDWpLSbyTkB7RtE0GwK4SIPv9+VK021T22YO6cZkJ404Gz7wIDAQABo4H3MIH0MBIGA1UdEwEB/wQIMAYBAf8CAQAwNQYDVR0fBC4wLDAqoCigJoYkaHR0cDovL2NybC5hZG9iZS5jb20vYWRvYmVyb290ZzIuY3JsMA4GA1UdDwEB/wQEAwIBhjBXBgNVHSAEUDBOMEwGCSqGSIb3LwECAzA/MD0GCCsGAQUFBwIBFjFodHRwczovL3d3dy5hZG9iZS5jb20vbWlzYy9wa2kvcHJvZF9zdmNlX2Nwcy5odG1sMB0GA1UdDgQWBBTQrUKK8HoUByXGl8BDqCOF6LUtIzAfBgNVHSMEGDAWgBSmHOFtVCRMqI9Icr9uqYzV5Owx1DANBgkqhkiG9w0BAQsFAAOCAgEAkZaoQ1NOzli5oWtvmKbWBDBa97RBPb4QS5Z5Te6HikVvUvFFRBiVDcBp8OBzMtiCHhhnOqZ9ofrOmVesSfAnY4DE/GaeTrWjTXuTv6h9+xBE7A8Te/ZVA6JVgJzvRk9S59X09uc+5/opUj0ORDFMyrE0bJaiTFUHkzmFjWF/NPnhXqE/P9LOjWS7MaHcOJfqQUXcryOYNoP74MU2D0I3YwXqiCDwWX1uTyOlicHrCVuubV2qndRjZpJAz5Tt2XEvKo9EzjcaQn6w7I05vjqV/ZNmL8pY7s/xi7LJsPYacMDmvYEiDoVa0dYUgqFpKx0NSlnmnnT0RItAHZUNDVwpT5n+wMQmTfHuH5DaL3bj18k5yON5zfDxTLFJsklMW/Ubcljh/OyriYwVZIF9j2yEbwsZ0Oka8xJTG8yn8P6A0bPD7Kv5ptzqlcRhPCahB+8pd5i2uzkBJOmwDI6hKDkZMbnRk39G3sle9iLuTJZJSGfS9ye1yyDm5lEYFYSX85gX7my8H0RptWmknH3sgi/9/E9IyrSqmJJQ4tQN1W1jwUjJ/LAnEu3Dq20S0LZtWOqhEvsxOS77fx57FQHgdXGkLsT/hW5XO2uMUG+rEZsuhZlVhW6sAtcs3l20qPZItvs3dzns4MnzZloKBI9zMJW0FzDYvVavJAPR3+K2si7NvH6jZnNpZ1RzdKFpdHN0VG9rZW5zgaFjdmFsWQ5ZMIIOVTADAgEAMIIOTAYJKoZIhvcNAQcCoIIOPTCCDjkCAQMxDzANBglghkgBZQMEAgEFADCBggYLKoZIhvcNAQkQAQSgcwRxMG8CAQEGCWCGSAGG/WwHATAxMA0GCWCGSAFlAwQCAQUABCCfE15ysct++hoYZi+ppWoIzS17dmgyz0IgJUk87rVQPgIRAITfZjZ+w0oeZ+5kjS/xCaIYDzIwMjYwMzAyMTgwMDQ2WgIIGDV4t5TxXnmgggvaMIIFHjCCAwagAwIBAgIQCRkNwSych9sy/Qq1UL3tSzANBgkqhkiG9w0BAQsFADBpMQswCQYDVQQGEwJVUzEXMBUGA1UEChMORGlnaUNlcnQsIEluYy4xQTA/BgNVBAMTOERpZ2lDZXJ0IFRydXN0ZWQgRzQgVGltZVN0YW1waW5nIFJTQTQwOTYgU0hBMjU2IDIwMjUgQ0ExMB4XDTI1MDYxMTAwMDAwMFoXDTM2MDkxMDIzNTk1OVowXzELMAkGA1UEBhMCVVMxFzAVBgNVBAoTDkRpZ2lDZXJ0LCBJbmMuMTcwNQYDVQQDEy5BZG9iZSBTSEEyNTYgRUNDMjU2IFRpbWVzdGFtcCBSZXNwb25kZXIgMjAyNSAxMFkwEwYHKoZIzj0CAQYIKoZIzj0DAQcDQgAEOpnJ1dlI70vziNfGsnAg894iynDv+TyM/WLDFvlk7Q9uI3eKNW5ux1vNXfywrXuGdLS7mGcY4R0fYSexTBGp8qOCAZUwggGRMAwGA1UdEwEB/wQCMAAwHQYDVR0OBBYEFCB2oaNucRWPdJUNrqQspDY/WBkVMB8GA1UdIwQYMBaAFO9vU0rp5AZ8esrikFb2L9RJ7MtOMA4GA1UdDwEB/wQEAwIHgDAWBgNVHSUBAf8EDDAKBggrBgEFBQcDCDCBlQYIKwYBBQUHAQEEgYgwgYUwJAYIKwYBBQUHMAGGGGh0dHA6Ly9vY3NwLmRpZ2ljZXJ0LmNvbTBdBggrBgEFBQcwAoZRaHR0cDovL2NhY2VydHMuZGlnaWNlcnQuY29tL0RpZ2lDZXJ0VHJ1c3RlZEc0VGltZVN0YW1waW5nUlNBNDA5NlNIQTI1NjIwMjVDQTEuY3J0MF8GA1UdHwRYMFYwVKBSoFCGTmh0dHA6Ly9jcmwzLmRpZ2ljZXJ0LmNvbS9EaWdpQ2VydFRydXN0ZWRHNFRpbWVTdGFtcGluZ1JTQTQwOTZTSEEyNTYyMDI1Q0ExLmNybDAgBgNVHSAEGTAXMAgGBmeBDAEEAjALBglghkgBhv1sBwEwDQYJKoZIhvcNAQELBQADggIBAEqc/irOueTptp7riY2S4C96BV8XhZnvnY8IgXVT5ByEr+H0Q17Tv1IBTuzrp/rOjqDa2CkOhsWkS1Lttw5qwnhMrwXROUV/wgBLSuO9z7A7KPHNbZpI6g0h84MQ0bMKF/xB1iLEka4yTPEVgeyndyj42tI7mbZBVaSc6o5P3aifVGqsoinyqwkYsCKS1NQnQURZ4+rsSU34dMu8c6/q1jjx1TCTXsxed4iaPcIvkEjl9nnuma23SgGB1jvLDPhGRtL8zWlnqlDdS5U4Oe0NTyqSgsYgpioKrMRl5knForGT84xLlDsqyw/TiY8r1zvEnh73+sTxcIZwhN4HNnnbB+0AlXbCdzqSmeyTLm8CNhsKiPTIMBpyiRt+ZPvL0BPTC84lQ99IuMvI8jknTGn3lx2LxsdGhgMAjmzNnsxkpp3VVq/Qz4dXBmpjQK401JHFkRdMqNFMycHRteFUKj5eZ5Y/9rS6pNtOg09hbCDECgmuNlCWyIUtoXS8ZxzfEqZKcnlOtoFOFU+WUVmqpm78PuEBSIB0KFj3jDsDaVR6n1gKHG9r+27KJoLyqDHeeZIxo253LeucYpBGkjHuU5RozZn6M26tQQvDixfXqgOi+GVtWYnkSSD9GAYvRIkF+Zh9CzcjVgPwroGIHfW8c0RxfvUaFV/Gq/N9xHwaRj7EUh5MMIIGtDCCBJygAwIBAgIQDcesVwX/IZkuQEMiDDpJhjANBgkqhkiG9w0BAQsFADBiMQswCQYDVQQGEwJVUzEVMBMGA1UEChMMRGlnaUNlcnQgSW5jMRkwFwYDVQQLExB3d3cuZGlnaWNlcnQuY29tMSEwHwYDVQQDExhEaWdpQ2VydCBUcnVzdGVkIFJvb3QgRzQwHhcNMjUwNTA3MDAwMDAwWhcNMzgwMTE0MjM1OTU5WjBpMQswCQYDVQQGEwJVUzEXMBUGA1UEChMORGlnaUNlcnQsIEluYy4xQTA/BgNVBAMTOERpZ2lDZXJ0IFRydXN0ZWQgRzQgVGltZVN0YW1waW5nIFJTQTQwOTYgU0hBMjU2IDIwMjUgQ0ExMIICIjANBgkqhkiG9w0BAQEFAAOCAg8AMIICCgKCAgEAtHgx0wqYQXK+PEbAHKx126NGaHS0URedTa2NDZS1mZaDLFTtQ2oRjzUXMmxCqvkbsDpz4aH+qbxeLho8I6jY3xL1IusLopuW2qftJYJaDNs1+JH7Z+QdSKWM06qchUP+AbdJgMQB3h2DZ0Mal5kYp77jYMVQXSZH++0trj6Ao+xh/AS7sQRuQL37QXbDhAktVJMQbzIBHYJBYgzWIjk8eDrYhXDEpKk7RdoX0M980EpLtlrNyHw0Xm+nt5pnYJU3Gmq6bNMI1I7Gb5IBZK4ivbVCiZv7PNBYqHEpNVWC2ZQ8BbfnFRQVESYOszFI2Wv82wnJRfN20VRS3hpLgIR4hjzL0hpoYGk81coWJ+KdPvMvaB0WkE/2qHxJ0ucS638ZxqU14lDnki7CcoKCz6eum5A19WZQHkqUJfdkDjHkccpL6uoG8pbF0LJAQQZxst7VvwDDjAmSFTUms+wV/FbWBqi7fTJnjq3hj0XbQcd8hjj/q8d6ylgxCZSKi17yVp2NL+cnT6Toy+rN+nM8M7LnLqCrO2JP3oW//1sfuZDKiDEb1AQ8es9Xr/u6bDTnYCTKIsDq1BtmXUqEG1NqzJKS4kOmxkYp2WyODi7vQTCBZtVFJfVZ3j7OgWmnhFr4yUozZtqgPrHRVHhGNKlYzyjlroPxul+bgIspzOwbtmsgY1MCAwEAAaOCAV0wggFZMBIGA1UdEwEB/wQIMAYBAf8CAQAwHQYDVR0OBBYEFO9vU0rp5AZ8esrikFb2L9RJ7MtOMB8GA1UdIwQYMBaAFOzX44LScV1kTN8uZz/nupiuHA9PMA4GA1UdDwEB/wQEAwIBhjATBgNVHSUEDDAKBggrBgEFBQcDCDB3BggrBgEFBQcBAQRrMGkwJAYIKwYBBQUHMAGGGGh0dHA6Ly9vY3NwLmRpZ2ljZXJ0LmNvbTBBBggrBgEFBQcwAoY1aHR0cDovL2NhY2VydHMuZGlnaWNlcnQuY29tL0RpZ2lDZXJ0VHJ1c3RlZFJvb3RHNC5jcnQwQwYDVR0fBDwwOjA4oDagNIYyaHR0cDovL2NybDMuZGlnaWNlcnQuY29tL0RpZ2lDZXJ0VHJ1c3RlZFJvb3RHNC5jcmwwIAYDVR0gBBkwFzAIBgZngQwBBAIwCwYJYIZIAYb9bAcBMA0GCSqGSIb3DQEBCwUAA4ICAQAXzvsWgBz+Bz0RdnEwvb4LyLU0pn/N0IfFiBowf0/Dm1wGc/Do7oVMY2mhXZXjDNJQa8j00DNqhCT3t+s8G0iP5kvN2n7Jd2E4/iEIUBO41P5F448rSYJ59Ib61eoalhnd6ywFLerycvZTAz40y8S4F3/a+Z1jEMK/DMm/axFSgoR8n6c3nuZB9BfBwAQYK9FHaoq2e26MHvVY9gCDA/JYsq7pGdogP8HRtrYfctSLANEBfHU16r3J05qX3kId+ZOczgj5kjatVB+NdADVZKON/gnZruMvNYY2o1f4MXRJDMdTSlOLh0HCn2cQLwQCqjFbqrXuvTPSegOOzr4EWj7PtspIHBldNE2K9i697cvaiIo2p61Ed2p8xMJb82Yosn0z4y25xUbI7GIN/TpVfHIqQ6Ku/qjTY6hc3hsXMrS+U0yy+GWqAXam4ToWd2UQ1KYT70kZjE4YtL8Pbzg0c1ugMZyZZd/BdHLiRu7hAWE6bTEm4XYRkA6Tl4KSFLFk43esaUeqGkH/wyW4N7OigizwJWeukcyIPbAvjSabnf7+Pu0VrFgoiovRDiyx3zEdmcif/sYQsfch28bZeUz2rtY/9TCA6TD8dC3JE3rYkrhLULy7Dc90G6e8BlqmyIjlgp2+VqsS9/wQD7yFylIz0scmbKvFoW2jNrbM1pD2T7m3XDGCAb4wggG6AgEBMH0waTELMAkGA1UEBhMCVVMxFzAVBgNVBAoTDkRpZ2lDZXJ0LCBJbmMuMUEwPwYDVQQDEzhEaWdpQ2VydCBUcnVzdGVkIEc0IFRpbWVTdGFtcGluZyBSU0E0MDk2IFNIQTI1NiAyMDI1IENBMQIQCRkNwSych9sy/Qq1UL3tSzANBglghkgBZQMEAgEFAKCB0TAaBgkqhkiG9w0BCQMxDQYLKoZIhvcNAQkQAQQwHAYJKoZIhvcNAQkFMQ8XDTI2MDMwMjE4MDA0NlowKwYLKoZIhvcNAQkQAgwxHDAaMBgwFgQU14e6eSljn7jBL0qmFlF0y+ClgPMwLwYJKoZIhvcNAQkEMSIEINtwdmiWZKjJ6mgk9z3rahCjLC/Xu3AQA/too37OZg6wMDcGCyqGSIb3DQEJEAIvMSgwJjAkMCIEINMjr+Jf3T0W8m8vJZ585InbhtLZqrB7JvWYNwhgiVZ4MAoGCCqGSM49BAMCBEcwRQIhALSAcHpR1A8bGXJVppGvkQRDnm8KTVEjo+cbfYxmoGNDAiApu869OTKIN8DLAiY6eU4Vj7mXfjrCpHXW/Z8hQa0TxGVyVmFsc6Fob2NzcFZhbHOBWQLbMIIC1woBAKCCAtAwggLMBgkrBgEFBQcwAQEEggK9MIICuTCBoqIWBBTQrUKK8HoUByXGl8BDqCOF6LUtIxgPMjAyNjAyMjYxNzQ0MzZaMHcwdTBNMAkGBSsOAwIaBQAEFIrvsgEQb2tlFU3Bo7dRqYtzkssWBBTQrUKK8HoUByXGl8BDqCOF6LUtIwIUSXMgaz5138lsr39W/y0qrbBAB92AABgPMjAyNjAyMjYxNzQ0MzZaoBEYDzIwMjYwMzA1MTc0NDM2WjANBgkqhkiG9w0BAQsFAAOCAgEAS9+KvwN+WT6MFPC0hYNgpp0F50WJiKTGr+IW2rNlprn0LjL6zpnzkq5rL9u+IS7Tp61zg/npOjNDssiKeafJMKiQ5hr1EGo5LTLJeuzma94b0ma1ew4p3aMiZY/ICRJeqiwrqyDslwNaUGWUuJ6OYiqHJIIwu555RvsT2X+P4xtNhKQONxUCvTl7VV9NNGrUaQhkdik0UYc6l7IfDQ73IqjTL7zECqy25JaZjf0woxELKpm4rVSdxrTPBn/TGQ/vADOFsW/VBGgMA5H3hKR5kI6N0PFczeA8Y4OR0N2WFLvXpBoPdjP85r11Z1H7+dgjPEyBmjngST+bX3mHl8mK8Do49+QiSYtoNRSjlQw/d20Rb44NqFUMJez2r4giOHUCxWZzwjwErAVxRI28hcdzdqG5WHd6WQCR52JOMv6d1Q2RVvfywagO/u4odsNV6QHpLcoWQG5Fh/cFE6zhngmdXR0Zr37vhuCGYwT+1/dth0Gn+LKGMNFg0pIF7eiEugJv82FU7hVrhRox8prH807ONtWe3mHjpL0vC2tLWTyGicuCTM564BXEaakK+iLs/Ok+WfOwUwak3CqTsDanvYJWLxFZez+20IRQBzqMTm0fDQo8nUdDkpIyr9wV4dayQ1idfIMs71j6/QVbsjuk5P5R1HSt6tCA5M0ELLFsBcmvTDVjcGFkWRBQAAAAAAAAAAAAAAAAAAAAAAAAAAAAAAAAAAAAAAAAAAAAAAAAAAAAAAAAAAAAAAAAAAAAAAAAAAAAAAAAAAAAAAAAAAAAAAAAAAAAAAAAAAAAAAAAAAAAAAAAAAAAAAAAAAAAAAAAAAAAAAAAAAAAAAAAAAAAAAAAAAAAAAAAAAAAAAAAAAAAAAAAAAAAAAAAAAAAAAAAAAAAAAAAAAAAAAAAAAAAAAAAAAAAAAAAAAAAAAAAAAAAAAAAAAAAAAAAAAAAAAAAAAAAAAAAAAAAAAAAAAAAAAAAAAAAAAAAAAAAAAAAAAAAAAAAAAAAAAAAAAAAAAAAAAAAAAAAAAAAAAAAAAAAAAAAAAAAAAAAAAAAAAAAAAAAAAAAAAAAAAAAAAAAAAAAAAAAAAAAAAAAAAAAAAAAAAAAAAAAAAAAAAAAAAAAAAAAAAAAAAAAAAAAAAAAAAAAAAAAAAAAAAAAAAAAAAAAAAAAAAAAAAAAAAAAAAAAAAAAAAAAAAAAAAAAAAAAAAAAAAAAAAAAAAAAAAAAAAAAAAAAAAAAAAAAAAAAAAAAAAAAAAAAAAAAAAAAAAAAAAAAAAAAAAAAAAAAAAAAAAAAAAAAAAAAAAAAAAAAAAAAAAAAAAAAAAAAAAAAAAAAAAAAAAAAAAAAAAAAAAAAAAAAAAAAAAAAAAAAAAAAAAAAAAAAAAAAAAAAAAAAAAAAAAAAAAAAAAAAAAAAAAAAAAAAAAAAAAAAAAAAAAAAAAAAAAAAAAAAAAAAAAAAAAAAAAAAAAAAAAAAAAAAAAAAAAAAAAAAAAAAAAAAAAAAAAAAAAAAAAAAAAAAAAAAAAAAAAAAAAAAAAAAAAAAAAAAAAAAAAAAAAAAAAAAAAAAAAAAAAAAAAAAAAAAAAAAAAAAAAAAAAAAAAAAAAAAAAAAAAAAAAAAAAAAAAAAAAAAAAAAAAAAAAAAAAAAAAAAAAAAAAAAAAAAAAAAAAAAAAAAAAAAAAAAAAAAAAAAAAAAAAAAAAAAAAAAAAAAAAAAAAAAAAAAAAAAAAAAAAAAAAAAAAAAAAAAAAAAAAAAAAAAAAAAAAAAAAAAAAAAAAAAAAAAAAAAAAAAAAAAAAAAAAAAAAAAAAAAAAAAAAAAAAAAAAAAAAAAAAAAAAAAAAAAAAAAAAAAAAAAAAAAAAAAAAAAAAAAAAAAAAAAAAAAAAAAAAAAAAAAAAAAAAAAAAAAAAAAAAAAAAAAAAAAAAAAAAAAAAAAAAAAAAAAAAAAAAAAAAAAAAAAAAAAAAAAAAAAAAAAAAAAAAAAAAAAAAAAAAAAAAAAAAAAAAAAAAAAAAAAAAAAAAAAAAAAAAAAAAAAAAAAAAAAAAAAAAAAAAAAAAAAAAAAAAAAAAAAAAAAAAAAAAAAAAAAAAAAAAAAAAAAAAAAAAAAAAAAAAAAAAAAAAAAAAAAAAAAAAAAAAAAAAAAAAAAAAAAAAAAAAAAAAAAAAAAAAAAAAAAAAAAAAAAAAAAAAAAAAAAAAAAAAAAAAAAAAAAAAAAAAAAAAAAAAAAAAAAAAAAAAAAAAAAAAAAAAAAAAAAAAAAAAAAAAAAAAAAAAAAAAAAAAAAAAAAAAAAAAAAAAAAAAAAAAAAAAAAAAAAAAAAAAAAAAAAAAAAAAAAAAAAAAAAAAAAAAAAAAAAAAAAAAAAAAAAAAAAAAAAAAAAAAAAAAAAAAAAAAAAAAAAAAAAAAAAAAAAAAAAAAAAAAAAAAAAAAAAAAAAAAAAAAAAAAAAAAAAAAAAAAAAAAAAAAAAAAAAAAAAAAAAAAAAAAAAAAAAAAAAAAAAAAAAAAAAAAAAAAAAAAAAAAAAAAAAAAAAAAAAAAAAAAAAAAAAAAAAAAAAAAAAAAAAAAAAAAAAAAAAAAAAAAAAAAAAAAAAAAAAAAAAAAAAAAAAAAAAAAAAAAAAAAAAAAAAAAAAAAAAAAAAAAAAAAAAAAAAAAAAAAAAAAAAAAAAAAAAAAAAAAAAAAAAAAAAAAAAAAAAAAAAAAAAAAAAAAAAAAAAAAAAAAAAAAAAAAAAAAAAAAAAAAAAAAAAAAAAAAAAAAAAAAAAAAAAAAAAAAAAAAAAAAAAAAAAAAAAAAAAAAAAAAAAAAAAAAAAAAAAAAAAAAAAAAAAAAAAAAAAAAAAAAAAAAAAAAAAAAAAAAAAAAAAAAAAAAAAAAAAAAAAAAAAAAAAAAAAAAAAAAAAAAAAAAAAAAAAAAAAAAAAAAAAAAAAAAAAAAAAAAAAAAAAAAAAAAAAAAAAAAAAAAAAAAAAAAAAAAAAAAAAAAAAAAAAAAAAAAAAAAAAAAAAAAAAAAAAAAAAAAAAAAAAAAAAAAAAAAAAAAAAAAAAAAAAAAAAAAAAAAAAAAAAAAAAAAAAAAAAAAAAAAAAAAAAAAAAAAAAAAAAAAAAAAAAAAAAAAAAAAAAAAAAAAAAAAAAAAAAAAAAAAAAAAAAAAAAAAAAAAAAAAAAAAAAAAAAAAAAAAAAAAAAAAAAAAAAAAAAAAAAAAAAAAAAAAAAAAAAAAAAAAAAAAAAAAAAAAAAAAAAAAAAAAAAAAAAAAAAAAAAAAAAAAAAAAAAAAAAAAAAAAAAAAAAAAAAAAAAAAAAAAAAAAAAAAAAAAAAAAAAAAAAAAAAAAAAAAAAAAAAAAAAAAAAAAAAAAAAAAAAAAAAAAAAAAAAAAAAAAAAAAAAAAAAAAAAAAAAAAAAAAAAAAAAAAAAAAAAAAAAAAAAAAAAAAAAAAAAAAAAAAAAAAAAAAAAAAAAAAAAAAAAAAAAAAAAAAAAAAAAAAAAAAAAAAAAAAAAAAAAAAAAAAAAAAAAAAAAAAAAAAAAAAAAAAAAAAAAAAAAAAAAAAAAAAAAAAAAAAAAAAAAAAAAAAAAAAAAAAAAAAAAAAAAAAAAAAAAAAAAAAAAAAAAAAAAAAAAAAAAAAAAAAAAAAAAAAAAAAAAAAAAAAAAAAAAAAAAAAAAAAAAAAAAAAAAAAAAAAAAAAAAAAAAAAAAAAAAAAAAAAAAAAAAAAAAAAAAAAAAAAAAAAAAAAAAAAAAAAAAAAAAAAAAAAAAAAAAAAAAAAAAAAAAAAAAAAAAAAAAAAAAAAAAAAAAAAAAAAAAAAAAAAAAAAAAAAAAAAAAAAAAAAAAAAAAAAAAAAAAAAAAAAAAAAAAAAAAAAAAAAAAAAAAAAAAAAAAAAAAAAAAAAAAAAAAAAAAAAAAAAAAAAAAAAAAAAAAAAAAAAAAAAAAAAAAAAAAAAAAAAAAAAAAAAAAAAAAAAAAAAAAAAAAAAAAAAAAAAAAAAAAAAAAAAAAAAAAAAAAAAAAAAAAAAAAAAAAAAAAAAAAAAAAAAAAAAAAAAAAAAAAAAAAAAAAAAAAAAAAAAAAAAAAAAAAAAAAAAAAAAAAAAAAAAAAAAAAAAAAAAAAAAAAAAAAAAAAAAAAAAAAAAAAAAAAAAAAAAAAAAAAAAAAAAAAAAAAAAAAAAAAAAAAAAAAAAAAAAAAAAAAAAAAAAAAAAAAAAAAAAAAAAAAAAAAAAAAAAAAAAAAAAAAAAAAAAAAAAAAAAAAAAAAAAAAAAAAAAAAAAAAAAAAAAAAAAAAAAAAAAAAAAAAAAAAAAAAAAAAAAAAAAAAAAAAAAAAAAAAAAAAAAAAAAAAAAAAAAAAAAAAAAAAAAAAAAAAAAAAAAAAAAAAAAAAAAAAAAAAAAAAAAAAAAAAAAAAAAAAAAAAAAAAAAAAAAAAAAAAAAAAAAAAAAAAAAAAAAAAAAAAAAAAAAAAAAAAAAAAAAAAAAAAAAAAAAAAAAAAAAAAAAAAAAAAAAAAAAAAAAAAAAAAAAAAAAAAAAAAAAAAAAAAAAAAAAAAAAAAAAAAAAAAAAAAAAAAAAAAAAAAAAAAAAAAAAAAAAAAAAAAAAAAAAAAAAAAAAAAAAAAAAAAAAAAAAAAAAAAAAAAAAAAAAAAAAAAAAAAAAAAAAAAAAAAAAAAAAAAAAAAAAAAAAAAAAAAAAAAAAAAAAAAAAAAAAAAAAAAAAAAAAAAAAAAAAAAAAAAAAAAAAAAAAAAAAAAAAAAAAAAAAAAAAAAAAAAAAAAAAAAAAAAAAAAAAAAAAAAAAAAAAAAAAAAAAAAAAAAAAAAAAAAAAAAAAAAAAAAAAAAAAAAAAAAAAAAAAAAAAAAAAAAAAAAAAAAAAAAAAAAAAAAAAAAAAAAAAAAAAAAAAAAAAAAAAAAAAAAAAAAAAAAAAAAAAAAAAAAAAAAAAAAAAAAAAAAAAAAAAAAAAAAAAAAAAAAAAAAAAAAAAAAAAAAAAAAAAAAAAAAAAAAAAAAAAAAAAAAAAAAAAAAAAAAAAAAAAAAAAAAAAAAAAAAAAAAAAAAAAAAAAAAAAAAAAAAAAAAAAAAAAAAAAAAAAAAAAAAAAAAAAAAAAAAAAAAAAAAAAAAAAAAAAAAAAAAAAAAAAAAAAAAAAAAAAAAAAAAAAAAAAAAAAAAAAAAAAAAAAAAAAAAAAAAAAAAAAAAAAAAAAAAAAAAAAAAAAAAAAAAAAAAAAAAAAAAAAAAAAAAAAAAAAAAAAAAAAAAAAAAAAAAAAAAAAAAAAAAAAAAAAAAAAAAAAAAAAAAAAAAAAAAAAAAAAAAAAAAAAAAAAAAAAAAAAAAAAAAAAAAAAAAAAAAAAAAAAAAAAAAAAAAAAAAAAAAAAAAAAAAAAAAAAAAAAAAAAAAAAAAAAAAAAAAAAAAAAAAAAAAAAAAAAAAAAAAAAAAAAAAAAAAAAAAAAAAAAAAAAAAAAAAAAAAAAAAAAAAAAAAAAAAAAAAAAAAAAAAAAAAAAAAAAAAAAAAAAAAAAAAAAAAAAAAAAAAAAAAAAAAAAAAAAAAAAAAAAAAAAAAAAAAAAAAAAAAAAAAAAAAAAAAAAAAAAAAAAAAAAAAAAAAAAAAAAAAAAAAAAAAAAAAAAAAAAAAAAAAAAAAAAAAAAAAAAAAAAAAAAAAAAAAAAAAAAAAAAAAAAAAAAAAAAAAAAAAAAAAAAAAAAAAAAAAAAAAAAAAAAAAAAAAAAAAAAAAAAAAAAAAAAAAAAAAAAAAAAAAAAAAAAAAAAAAAAAAAAAAAAAAAAAAAAAAAAAAAAAAAAAAAAAAAAAAAAAAAAAAAAAAAAAAAAAAAAAAAAAAAAAAAAAAAAAAAAAAAAAAAAAAAAAAAAAAAAAAAAAAAAAAAAAAAAAAAAAAAAAAAAAAAAAAAAAAAAAAAAAAAAAAAAAAAAAAAAAAAAAAAAAAAAAAAAAAAAAAAAAAAAAAAAAAAAAAAAAAAAAAAAAAAAAAAAAAAAAAAAAAAAAAAAAAAAAAAAAAAAAAAAAAAAAAAAAAAAAAAAAAAAAAAAAAAAAAAAAAAAAAAAAAAAAAAAAAAAAAAAAAAAAAAAAAAAAAAAAAAAAAAAAAAAAAAAAAAAAAAAAAAAAAAAAAAAAAAAAAAAAAAAAAAAAAAAAAAAAAAAAAAAAAAAAAAAAAAAAAAAAAAAAAAAAAAAAAAAAAAAAAAAAAAAAAAAAAAAAAAAAAAAAAAAAAAAAAAAAAAAAAAAAAAAAAAAAAAAAAAAAAAAAAAAAAAAAAAAAAAAAA9lkBAAbl7KS3DzJWxHmbxTXgFMOJBHLlqDR3tJXsAaL3L0JzBjMVfmEkM8fqj3854JNgvQ3guFInq3NCWJaDaUDvBB8tdntxsyUi7JXPSYnBdrHqsez2b4HwhzwGU6sBssQBYkIr05NVTscjdwgoGKSysIszMB3BjzItk/BPtTYsmYr4QlHtOVSltOBoEhrIQYABB+ITgdG+brwQ+e5AFIP/pqiRICcGqR0eV2zGoKhcfsUbeZ+Ryue/ZQ8a1HybCiSNPun+XudEdscpetS1/a/sEfj0g8agnZPqFLXwxAxYlWROIGcHtN8gZvUVp0j3m8rkuyb0QHKfq0w2hocqhKwAjAQ=</c2pa:manifest></metadata>
<g>
	<g>
		<path style="fill:#D4AF37;" d="M168.344,584.012c8.109-0.854,12.234-2.135,12.234-8.536V511.46c0-5.833-4.125-8.535-10.812-9.389
			v-3.13c7.54,0.427,16.075,0.427,24.468,0l26.175,67.288l25.891-67.288c7.54,0.427,15.648,0.427,22.477,0v3.13
			c-6.402,0.854-9.104,3.556-9.104,9.389v64.016c0,6.401,2.703,7.824,9.531,8.536v3.271c-10.385-0.427-22.334-0.427-33.289,0v-3.271
			c7.397-0.712,10.101-2.135,10.101-8.536V511.46l-29.021,75.823h-1.423l-30.585-75.823v64.016c0,6.401,4.125,7.683,13.088,8.536
			v3.271c-10.243-0.427-20.627-0.427-29.732,0V584.012z"/>
		<path style="fill:#D4AF37;" d="M349.578,573.485c2.418,6.828,3.557,9.674,13.23,10.527v3.271c-11.238-0.284-23.615-0.284-34.853,0
			v-3.271c10.1-0.854,9.816-3.13,7.113-10.812l-4.979-13.94h-32.292l-5.121,14.937c-2.418,6.971,2.276,8.963,10.527,9.816v3.271
			c-9.104-0.284-20.77-0.284-29.732,0v-3.271c8.962-0.854,12.234-3.557,14.937-11.381l25.749-74.401h7.967L349.578,573.485z
			 M299.077,555.276h29.447l-15.222-42.108L299.077,555.276z"/>
		<path style="fill:#D4AF37;" d="M368.495,584.012c7.54-0.712,10.243-1.992,10.243-8.678v-64.585c0-6.544-2.703-7.824-10.243-8.678
			v-3.13c11.096,0.427,23.045,0.427,34,0v3.13c-7.397,0.854-10.101,2.134-10.101,8.678v64.442c0,6.544,2.561,8.108,7.113,8.108
			h4.125c14.368,0,18.636-2.703,27.029-18.493h3.13c-2.419,8.251-3.557,15.222-4.268,22.477c-21.197-0.284-39.833-0.284-61.029,0
			V584.012z"/>
		<path style="fill:#D4AF37;" d="M511.32,573.485c2.418,6.828,3.556,9.674,13.229,10.527v3.271c-11.238-0.284-23.615-0.284-34.853,0
			v-3.271c10.101-0.854,9.816-3.13,7.113-10.812l-4.979-13.94h-32.292l-5.121,14.937c-2.419,6.971,2.276,8.963,10.526,9.816v3.271
			c-9.103-0.284-20.769-0.284-29.731,0v-3.271c8.962-0.854,12.234-3.557,14.938-11.381l25.748-74.401h7.967L511.32,573.485z
			 M460.819,555.276h29.447l-15.222-42.108L460.819,555.276z"/>
		<path style="fill:#D4AF37;" d="M530.237,584.012c7.539-0.712,10.242-1.992,10.242-8.678v-64.585c0-6.544-2.703-7.824-10.242-8.678
			v-3.13c11.096,0.427,23.046,0.427,33.999,0v3.13c-7.397,0.854-10.1,2.134-10.1,8.678v64.442c0,6.544,2.561,8.108,7.112,8.108
			h4.126c14.368,0,18.636-2.703,27.028-18.493h3.13c-2.418,8.251-3.557,15.222-4.268,22.477c-21.196-0.284-39.832-0.284-61.028,0
			V584.012z"/>
		<path style="fill:#D4AF37;" d="M600.511,584.012c7.539-0.712,10.242-1.992,10.242-8.678v-64.585c0-6.544-2.703-7.824-10.242-8.678
			v-3.13c11.096,0.427,23.046,0.427,33.999,0v3.13c-7.397,0.854-10.1,2.134-10.1,8.678v64.442c0,6.544,2.561,8.108,7.112,8.108
			h4.126c14.368,0,18.636-2.703,27.028-18.493h3.13c-2.418,8.251-3.557,15.222-4.268,22.477c-21.196-0.284-39.832-0.284-61.028,0
			V584.012z"/>
		<path style="fill:#D4AF37;" d="M743.337,573.485c2.418,6.828,3.556,9.674,13.229,10.527v3.271
			c-11.238-0.284-23.615-0.284-34.854,0v-3.271c10.101-0.854,9.816-3.13,7.113-10.812l-4.979-13.94h-32.292l-5.121,14.937
			c-2.419,6.971,2.276,8.963,10.527,9.816v3.271c-9.105-0.284-20.771-0.284-29.732,0v-3.271c8.962-0.854,12.234-3.557,14.938-11.381
			l25.748-74.401h7.967L743.337,573.485z M692.835,555.276h29.447l-15.222-42.108L692.835,555.276z"/>
		<path style="fill:#D4AF37;" d="M846.897,502.071c-7.397,0.854-10.101,2.134-10.101,8.678v64.585c0,6.686,2.703,7.966,10.101,8.678
			v3.271c-10.954-0.427-22.904-0.427-34,0v-3.271c7.54-0.712,10.242-1.992,10.242-8.678v-30.159h-36.986v30.159
			c0,6.686,2.702,7.966,10.1,8.678v3.271c-10.953-0.427-22.903-0.427-33.999,0v-3.271c7.539-0.712,10.242-1.992,10.242-8.678
			v-64.585c0-6.544-2.703-7.824-10.242-8.678v-3.13c11.096,0.427,23.046,0.427,33.999,0v3.13c-7.397,0.854-10.1,2.134-10.1,8.678
			v30.442h36.986v-30.442c0-6.544-2.702-7.824-10.242-8.678v-3.13c11.096,0.427,23.046,0.427,34,0V502.071z"/>
	</g>
</g>
<g>
	<path style="fill:#D4AF37;" d="M607.92,434.902V311.705c0-11.225,5.202-16.427,17.521-18.069v-6.022
		c-5.918,0.37-12.337,0.572-18.93,0.608c-4.053,0.022-8.17-0.019-12.28-0.122c-4.11,0.103-8.227,0.144-12.28,0.122
		c-6.224-0.035-12.278-0.222-17.917-0.553c9.194,0.955,26.806,6.025,32.97,30.272c3.9,15.343,2.623,29.682-3.694,41.467
		c-3.159,5.894-7.477,11.017-12.767,15.24v60.256c0,12.32-5.202,15.058-18.343,16.427v6.297c10.408-0.406,21.282-0.61,32.031-0.615
		c10.749,0.005,21.624,0.209,32.031,0.615v-6.297C613.122,449.96,607.92,447.223,607.92,434.902z"/>
	<path style="fill:#C98C85;" d="M592.158,319.173c-7.66-30.128-35.574-28.596-42.723-24.511c-5.376,3.072-7.095,7.3-5.299,11.597
		c0.945,2.261,2.79,4.013,4.975,5.124c0.807,0.41,1.789,0.987,2.818,1.734c-2.651,8.114-16.349,15.398-31.43,28.525
		c-18.383,16,0.851,40.34,12.766,56.51c11.915,16.17,2.042,33.702-3.771,39.83s-3.719,11.234,2.409,9.532
		s10.553-7.489,15.319-16.681c4.766-9.191,6.808-24.511-3.064-39.489c-9.872-14.979-14.128-21.787-14.638-31.149
		c-0.511-9.362,6.638-18.553,16.34-18.553c5.747,0,7.97,3.225,8.828,5.855c-2.03,3.945-4.619,7.251-7.636,10.656
		c-6.638,7.49-5.277,28.766,16.511,20.426C585.35,370.237,599.818,349.301,592.158,319.173z"/>
	<path style="fill:#D4AF37;" d="M408.741,434.902V311.705c0-11.225-5.202-16.427-17.521-18.069v-6.022
		c5.918,0.37,12.337,0.572,18.93,0.608c4.053,0.022,8.17-0.019,12.28-0.122c4.11,0.103,8.227,0.144,12.28,0.122
		c6.224-0.035,12.278-0.222,17.917-0.553c-9.194,0.955-26.806,6.025-32.97,30.272c-3.9,15.343-2.623,29.682,3.694,41.467
		c3.159,5.894,7.477,11.017,12.767,15.24v60.256c0,12.32,5.202,15.058,18.343,16.427v6.297c-10.408-0.406-21.282-0.61-32.031-0.615
		c-10.749,0.005-21.624,0.209-32.031,0.615v-6.297C403.538,449.96,408.741,447.223,408.741,434.902z"/>
	<path style="fill:#C98C85;" d="M424.502,319.173c7.66-30.128,35.574-28.596,42.723-24.511c5.376,3.072,7.095,7.3,5.299,11.597
		c-0.945,2.261-2.79,4.013-4.975,5.124c-0.807,0.41-1.789,0.987-2.818,1.734c2.651,8.114,16.349,15.398,31.43,28.525
		c18.383,16-0.851,40.34-12.766,56.51c-11.915,16.17-2.042,33.702,3.771,39.83s3.719,11.234-2.409,9.532
		s-10.553-7.489-15.319-16.681c-4.766-9.191-6.808-24.511,3.064-39.489c9.872-14.979,14.128-21.787,14.638-31.149
		c0.511-9.362-6.638-18.553-16.34-18.553c-5.747,0-7.97,3.225-8.828,5.855c2.03,3.945,4.619,7.251,7.636,10.656
		c6.638,7.49,5.277,28.766-16.511,20.426C431.311,370.237,416.842,349.301,424.502,319.173z"/>
</g>
<g>
	<g>
		<path style="fill:#C98C85;" d="M287.436,645.266V626.16h4.8v18.913c0,7.44,3.408,10.801,9.457,10.801
			c6.048,0,9.505-3.36,9.505-10.801V626.16h4.656v19.105c0,9.745-5.329,14.881-14.209,14.881
			C292.812,660.147,287.436,655.011,287.436,645.266z"/>
		<path style="fill:#C98C85;" d="M381.757,659.763l-7.249-10.321c-0.672,0.049-1.392,0.097-2.112,0.097h-8.305v10.225h-4.8V626.16
			h13.105c8.737,0,14.017,4.416,14.017,11.713c0,5.185-2.688,8.929-7.393,10.608l7.969,11.281H381.757z M381.613,637.873
			c0-4.801-3.216-7.537-9.361-7.537h-8.161v15.121h8.161C378.397,645.457,381.613,642.673,381.613,637.873z"/>
		<path style="fill:#C98C85;" d="M425.051,642.961c0-9.841,7.584-17.186,17.905-17.186c10.225,0,17.81,7.297,17.81,17.186
			c0,9.89-7.585,17.186-17.81,17.186C432.635,660.147,425.051,652.802,425.051,642.961z M455.965,642.961
			c0-7.44-5.568-12.913-13.009-12.913c-7.537,0-13.105,5.473-13.105,12.913c0,7.441,5.568,12.913,13.105,12.913
			C450.396,655.874,455.965,650.403,455.965,642.961z"/>
		<path style="fill:#C98C85;" d="M501.706,626.16h4.801v29.426H524.7v4.177h-22.994V626.16z"/>
		<path style="fill:#C98C85;" d="M560.459,642.961c0-9.841,7.584-17.186,17.905-17.186c10.225,0,17.81,7.297,17.81,17.186
			c0,9.89-7.585,17.186-17.81,17.186C568.043,660.147,560.459,652.802,560.459,642.961z M591.373,642.961
			c0-7.44-5.568-12.913-13.009-12.913c-7.537,0-13.105,5.473-13.105,12.913c0,7.441,5.568,12.913,13.105,12.913
			C585.805,655.874,591.373,650.403,591.373,642.961z"/>
		<path style="fill:#C98C85;" d="M660.396,642.77h4.608v13.104c-3.36,2.833-8.017,4.272-12.721,4.272
			c-10.321,0-17.905-7.248-17.905-17.186c0-9.937,7.584-17.186,18.001-17.186c5.328,0,9.841,1.776,12.913,5.185l-2.977,2.977
			c-2.784-2.688-5.952-3.889-9.744-3.889c-7.777,0-13.394,5.425-13.394,12.913c0,7.393,5.616,12.913,13.346,12.913
			c2.832,0,5.472-0.624,7.872-2.16V642.77z"/>
		<path style="fill:#C98C85;" d="M720.635,648.146v11.617h-4.752V648.05l-13.346-21.89h5.137l10.753,17.713l10.801-17.713h4.753
			L720.635,648.146z"/>
	</g>
</g>

</svg>
